<svg width="664" height="756" viewBox="0 0 664 756" fill="none" xmlns="http://www.w3.org/2000/svg">
<path d="M48.0215 0.682185C48.1306 0.683341 48.2362 0.724796 48.3209 0.799768C48.4056 0.87474 48.4645 0.97881 48.488 1.09499C48.5115 1.21116 48.4982 1.33259 48.4502 1.43944C48.4022 1.54629 48.3224 1.63225 48.2238 1.68329C45.5884 3.23301 43.1189 5.20126 40.8155 7.58806C28.6135 20.2121 17.1275 33.5657 6.35737 47.6489C6.30873 47.718 6.24105 47.7683 6.16427 47.7924C6.08749 47.8164 6.00564 47.813 5.93076 47.7827C5.85589 47.7523 5.79192 47.6965 5.74825 47.6236C5.70457 47.5507 5.6835 47.4644 5.68813 47.3774C5.92677 37.5814 6.04091 27.7401 6.03053 17.8535C6.01497 5.34831 9.65689 0.427675 20.9562 0.105288C29.9209 -0.143572 38.9427 0.0487229 48.0215 0.682185Z" fill="#D8A62E"/>
<path d="M235.869 28.8831C160.323 51.6538 100.854 104.084 62.9558 179.336C33.6804 237.451 21.1204 302.759 4.34271 366.762C4.31041 366.921 4.22406 367.061 4.10101 367.153C3.97795 367.246 3.82732 367.284 3.67943 367.26C3.53153 367.237 3.39734 367.153 3.30383 367.026C3.21033 366.899 3.16445 366.738 3.17543 366.575C3.64234 295.254 4.20783 223.763 4.87188 152.103C4.89263 149.546 5.44774 147.165 6.5372 144.959C35.9527 85.052 77.2952 37.35 130.565 1.85352C131.003 1.56505 131.503 1.4125 132.012 1.41235C157.402 1.49154 182.708 1.6499 207.932 1.88745C215.154 1.95532 220.554 1.68383 224.461 7.97886C228.518 14.5171 232.471 21.0497 236.32 27.5766C236.389 27.6905 236.431 27.8203 236.445 27.9554C236.458 28.0906 236.442 28.2273 236.398 28.3546C236.355 28.4819 236.284 28.596 236.192 28.6879C236.1 28.7797 235.989 28.8466 235.869 28.8831Z" fill="#D8A62E"/>
<path d="M472.78 4.69962C489.568 4.71093 506.377 4.89757 523.207 5.25955C523.695 5.27086 524.151 5.42358 524.576 5.71769C584.995 48.0183 642.394 112.258 661.117 189.224C662.176 193.579 662.684 198.262 662.642 203.273C661.885 298.869 661.091 394.471 660.261 490.079C660.22 494.581 660.095 497.98 659.888 500.277C659.805 501.159 659.55 501.221 659.125 500.463C642.098 470.023 634.55 436.546 629.492 401.796C621.15 344.615 615.235 286.449 603.734 229.913C597.213 197.827 588.466 172.002 570.412 146.533C537.998 100.765 497.765 65.6704 449.715 41.2481C449.248 40.9993 449.014 40.5921 449.014 40.0265C449.014 32.2722 447.458 16.5601 451.24 10.4347C456.236 2.30717 465.092 4.69962 472.78 4.69962Z" fill="#D8A62E"/>
<path d="M626.867 7.5827C631.314 7.66732 634.925 7.35774 634.933 6.89123C634.94 6.42472 631.341 5.97794 626.894 5.89332C622.448 5.8087 618.837 6.11828 618.829 6.58479C618.822 7.0513 622.421 7.49808 626.867 7.5827Z" fill="#D8A62E"/>
<path d="M640.452 89.9045C633.604 70.7309 644.016 48.3165 662.895 43.311C663.642 43.1074 664.01 43.4242 664 44.2612L663.486 123.993C663.476 124.943 663.227 125.022 662.739 124.23C658.485 117.375 653.967 110.741 649.183 104.327C644.618 98.1961 641.708 93.3885 640.452 89.9045Z" fill="#D8A62E"/>
<path d="M49.6242 372.844C64.8611 235.966 130.805 111.185 260.575 74.1443C261.254 73.9528 261.971 74.0006 262.625 74.2809C263.279 74.5612 263.836 75.0596 264.217 75.7053L300.481 137.943C300.564 138.09 300.527 138.175 300.372 138.198C193.138 153.231 134.991 248.691 117.404 356.606C114.447 374.728 111.957 402.945 106.401 426.004C88.4246 500.629 45.3131 573.793 1.89021 633.503C1.11202 634.578 0.72811 634.431 0.738486 633.062C1.03939 591.581 1.36104 550.994 1.70344 511.301C1.72419 510.114 2.48163 508.151 3.97575 505.413C26.7144 463.842 44.2703 420.812 49.6242 372.844Z" fill="#D8A62E"/>
<path d="M657.597 695.09C610.143 664.515 576.604 612.882 553.647 559.976C522.162 487.422 523.842 401.973 512.543 324.735C504.73 271.423 487.003 222.725 448.498 187.5C448.042 187.082 447.813 186.544 447.813 185.888L448.358 103.781C448.36 103.663 448.39 103.547 448.445 103.446C448.501 103.344 448.579 103.26 448.674 103.202C448.768 103.143 448.875 103.113 448.983 103.113C449.092 103.114 449.198 103.145 449.292 103.204C510.25 139.708 549.678 194.74 567.576 268.301C580.323 320.697 584.51 379.134 590.362 435.111C593.194 462.293 597.708 490.612 606.999 515.86C619.295 549.241 636.555 579.421 658.78 606.4C659.154 606.852 659.335 607.412 659.325 608.08L658.702 694.412C658.702 695.339 658.334 695.566 657.597 695.09Z" fill="#D8A62E"/>
<path d="M406.53 328.93C379.745 272.716 322.548 237.643 270.581 284.406C234.551 316.832 233.477 359.811 226.427 406.048C226.333 406.636 226.043 407.072 225.555 407.355C221.026 409.985 218.427 413.242 218.069 419.249C217.369 431.449 218.925 444.718 216.31 456.51C203.973 512.097 184.213 564.323 157.028 613.19C130.632 660.666 100.423 704.799 69.3886 749.136C69.1606 749.458 68.8682 749.718 68.5337 749.897C68.1992 750.077 67.8314 750.17 67.4586 750.171C50.1103 750.024 32.5855 749.786 14.8843 749.458C10.6302 749.379 7.44484 748.57 5.32817 747.032C-0.617181 742.705 -1.73777 734.187 2.72903 727.841C34.6814 682.487 66.5871 636.86 94.8353 588.638C123.576 539.579 143.731 487.177 155.3 431.432C160.416 406.783 164.94 379.692 168.872 350.156C174.817 305.61 192.135 268.225 220.824 238C249.788 207.475 291.296 189.285 331.871 192.967C332.4 193.012 332.81 193.278 333.101 193.765C363.004 245.154 392.881 296.533 422.732 347.9C428.071 357.079 440.319 357.928 444.942 347.645C445.896 345.53 446.384 342.193 446.405 337.634C446.488 314.083 446.747 290.628 447.183 267.269C447.193 266.206 447.468 266.115 448.008 266.997C454.98 278.332 462.311 290.752 467.26 302.698C498.699 378.509 477.563 471.289 452.008 545.048C436.392 590.08 418.369 633.659 397.939 675.784C397.545 676.599 397.12 676.621 396.663 675.852L357.38 609.576C357.105 609.104 356.946 608.564 356.919 608.008C356.891 607.452 356.997 606.899 357.224 606.403C371.657 574.583 384.388 541.717 395.418 507.804C408.538 467.522 417.97 425.782 418.048 385.297C418.094 366.395 414.624 345.931 406.53 328.93Z" fill="#D8A62E"/>
<path d="M312.844 336.5C336.174 322.739 362.555 343.83 359.956 372.642C354.804 429.433 337.544 488.701 318.011 541.471C317.731 542.217 317.394 542.251 317 541.572L273.904 468.967C273.753 468.707 273.657 468.416 273.622 468.113C273.587 467.811 273.614 467.506 273.701 467.22C283.621 435.445 291.06 399.92 296.02 360.645C297.296 350.533 304.533 341.404 312.844 336.5Z" fill="#D8A62E"/>
<path d="M602.548 755.522L505.274 754.521C504.704 754.51 504.211 754.289 503.796 753.859C503.007 753.045 502.151 751.981 501.228 750.669C470.085 706.112 454.241 647.675 464.824 592.343C473.291 548.023 534.316 557.441 528.355 605.273C520.231 670.547 552.152 722.961 602.828 754.368C604.094 755.149 604 755.533 602.548 755.522Z" fill="#D8A62E"/>
<path d="M201.44 751.356C182.639 751.712 163.76 750.83 145.037 750.949C144.918 750.948 144.801 750.912 144.698 750.845C144.596 750.778 144.512 750.683 144.455 750.568C144.398 750.454 144.37 750.325 144.373 750.195C144.377 750.065 144.413 749.939 144.477 749.829C168.912 708.846 191.562 666.766 212.428 623.589C213.113 622.163 214.109 618.973 215.183 617.26C215.245 617.145 215.341 617.057 215.455 617.01C215.569 616.962 215.694 616.957 215.811 616.996C215.928 617.035 216.029 617.116 216.098 617.225C216.168 617.335 216.202 617.466 216.195 617.599C215.842 656.953 215.468 696.29 215.074 735.61C214.965 745.892 210.747 751.186 201.44 751.356Z" fill="#D8A62E"/>
</svg>
