<svg width="187" height="59" viewBox="0 0 187 59" fill="none" xmlns="http://www.w3.org/2000/svg">
<path d="M39.5329 12.9921C39.2082 11.142 38.9521 9.29417 38.7165 7.44407L38.6296 6.75116L38.5861 6.40354L38.5747 6.31664C38.5701 6.2892 38.5678 6.2549 38.5633 6.2366L38.5358 6.10623C38.4626 5.7632 38.3323 5.44304 38.1516 5.16632C37.9709 4.88961 37.7491 4.6472 37.493 4.46196C37.2368 4.27673 36.9578 4.13951 36.6719 4.06405C36.386 3.98629 36.0979 3.96112 35.8143 3.98856L34.5199 4.10748L33.1317 4.2287C32.6697 4.26757 32.2077 4.30645 31.7435 4.34304C29.8933 4.49169 28.0431 4.62204 26.1929 4.73638C25.2667 4.79584 24.3428 4.84614 23.4165 4.89874L23.0689 4.91706L22.8951 4.92618L22.8516 4.92847H22.8311L22.8219 4.93076L22.7899 4.93763C22.7693 4.9422 22.7464 4.94679 22.7258 4.94908C22.7053 4.95136 22.6824 4.95364 22.6641 4.96278C22.6252 4.97879 22.5841 4.98566 22.5429 4.99709C22.3851 5.04969 22.2479 5.13886 22.1244 5.23949C22.0009 5.3424 21.9002 5.46591 21.8248 5.60084C21.7516 5.73576 21.7013 5.87526 21.6784 6.01933C21.6647 6.09022 21.6647 6.16342 21.6624 6.23431C21.6647 6.25261 21.667 6.2709 21.667 6.2892V6.31664V6.33035V6.33721V6.3555L21.6807 6.70311L21.7264 8.09128C21.7859 9.94138 21.8293 11.7915 21.8636 13.6439C21.8751 14.1058 21.8774 14.5701 21.8865 15.032V15.0526V15.0892L21.8842 15.1646L21.8797 15.3156L21.8659 15.6152C21.8636 15.7158 21.8499 15.8141 21.8362 15.9148C21.8225 16.0154 21.8088 16.1137 21.7927 16.2143C21.7676 16.4156 21.7127 16.61 21.6647 16.8067C21.6372 16.905 21.6189 17.0033 21.5823 17.0994C21.5503 17.1954 21.516 17.2915 21.4817 17.3852C20.9283 18.9106 19.8054 20.1981 18.3783 20.9619C18.1976 21.0534 18.0169 21.1449 17.8317 21.2226C17.6441 21.2958 17.452 21.3667 17.2622 21.4331C17.0678 21.4879 16.8711 21.5405 16.6745 21.5885C16.4778 21.632 16.2765 21.6595 16.0776 21.6892C15.9769 21.7052 15.8786 21.7121 15.778 21.7189L15.4761 21.7349C15.2382 21.7463 15.1719 21.7418 15.0461 21.7418H14.3532L11.5768 21.7281C10.6505 21.7166 9.72657 21.7121 8.80034 21.6961L6.22748 21.6503C6.09026 21.6503 5.95761 21.6709 5.82725 21.7189C5.69689 21.7647 5.56882 21.8355 5.45447 21.9316C5.34012 22.0253 5.24407 22.1443 5.1686 22.2746C5.09541 22.405 5.04511 22.5491 5.02224 22.7114L5.01537 22.7412L5.01079 22.7572C5.01079 22.7595 5.00852 22.7617 5.00852 22.7663V22.7869L5.00165 22.9607L4.98793 23.3083L4.96049 24.0035L4.90331 25.3917C4.85986 26.3179 4.81869 27.2418 4.76837 28.168C4.72263 29.0942 4.66546 30.0204 4.61057 30.9443C4.55111 31.8705 4.49393 32.7967 4.42532 33.7206C4.39331 34.1825 4.359 34.6468 4.3247 35.1087L4.23779 36.2842C4.23093 36.5495 4.27439 36.8216 4.37044 37.0846C4.46649 37.3476 4.61514 37.6014 4.80954 37.8255C5.00165 38.052 5.24407 38.2441 5.51622 38.395L5.61914 38.4522C5.65573 38.4682 5.69232 38.4819 5.72662 38.4979L5.83641 38.5459C5.873 38.5642 5.91188 38.5688 5.95076 38.5825L6.06738 38.6191C6.08797 38.626 6.10627 38.6328 6.12685 38.6374L6.18631 38.6489L6.30753 38.674L6.36927 38.6877C6.3807 38.69 6.38757 38.6923 6.40358 38.6946L6.44703 38.6992C7.37326 38.7952 8.2995 38.8981 9.22573 39.0056C11.0782 39.2274 12.9307 39.4653 14.7831 39.7763C12.9329 40.1033 11.0851 40.3595 9.23488 40.5973C8.31093 40.7139 7.3847 40.826 6.46075 40.9312L6.4173 40.9358C6.40358 40.938 6.38071 40.938 6.3647 40.938L6.25264 40.9426L6.02622 40.9518L5.91187 40.954C5.87299 40.954 5.8364 40.9495 5.79752 40.9495L5.57111 40.9335C5.49564 40.9266 5.41788 40.9266 5.34241 40.9106L5.116 40.874C5.04053 40.8603 4.96506 40.8488 4.88959 40.8328L4.66547 40.7734C4.06857 40.611 3.49681 40.3297 2.9891 39.9547C2.4791 39.5773 2.03771 39.1017 1.6878 38.5528C1.33789 38.0039 1.09547 37.3773 0.969683 36.7279L0.944529 36.6066C0.935381 36.5655 0.93309 36.5243 0.926229 36.4831L0.896497 36.2362L0.882776 36.1127L0.871344 36.0006L0.857622 35.8268L0.798158 35.1339C0.756992 34.6719 0.7204 34.2077 0.683809 33.7457C0.608338 32.8195 0.542019 31.8956 0.473409 30.9694C0.41166 30.0432 0.34534 29.1193 0.290453 28.1931C0.230991 27.2669 0.180672 26.343 0.128071 25.4168L0.0571748 24.0287L0.0228643 23.3357L0.00685372 22.9882L0 22.8144V22.7937V22.7595V22.6886L0.00228923 22.5445C0.0091502 21.7807 0.155512 21.0054 0.439099 20.2827C0.722686 19.5578 1.14807 18.8923 1.67408 18.3206C2.20009 17.7489 2.83358 17.2663 3.53797 16.9164C4.24236 16.5665 5.01766 16.3447 5.8021 16.2692L6.09712 16.2486C6.19088 16.2418 6.3121 16.2372 6.35098 16.2349L6.6986 16.2235L7.39156 16.2052L8.77977 16.1686C9.706 16.1457 10.6299 16.1297 11.5562 16.1114L14.3326 16.0725L15.0255 16.068C15.1307 16.068 15.2954 16.068 15.2885 16.0611C15.3045 16.0588 15.3183 16.0588 15.3343 16.0588C15.3503 16.0588 15.3663 16.0611 15.38 16.0543C15.4075 16.0451 15.4372 16.0474 15.4669 16.0405C15.4944 16.0291 15.5218 16.0222 15.5515 16.0177C15.5767 16.0039 15.6041 15.9925 15.6316 15.9856C15.6567 15.9719 15.6819 15.9559 15.7094 15.9468C15.8123 15.8919 15.9083 15.8164 15.9884 15.7272C16.0684 15.6381 16.1279 15.5351 16.1736 15.4276C16.1782 15.4139 16.185 15.4002 16.1919 15.3888C16.2011 15.3773 16.1988 15.3613 16.2033 15.3476C16.2079 15.3179 16.2285 15.2927 16.2262 15.263C16.2285 15.2493 16.2308 15.2333 16.2331 15.2195C16.2376 15.2058 16.2422 15.1898 16.2399 15.1738C16.2399 15.1578 16.2399 15.1418 16.2422 15.128L16.2445 15.1052L16.2468 15.0938L16.2491 15.0869V15.0663C16.2514 14.6044 16.2514 14.1401 16.2582 13.6782C16.2765 11.8281 16.3017 9.97566 16.3451 8.12556L16.3771 6.73742L16.3863 6.38981L16.3932 6.25489L16.4023 6.10852L16.4229 5.81808C16.4663 5.42931 16.535 5.04282 16.647 4.66776C16.8643 3.91766 17.2211 3.20873 17.6922 2.59584C18.161 1.98067 18.7373 1.45697 19.3891 1.05219C20.0386 0.647405 20.7659 0.361543 21.516 0.224329C21.7036 0.190026 21.8911 0.169451 22.0809 0.146582C22.1747 0.132861 22.2684 0.130556 22.3622 0.128269L22.6435 0.121402L22.7853 0.119141H22.8196H22.8425L22.8859 0.121402L23.0597 0.128269L23.4074 0.144293C24.3336 0.187744 25.2598 0.228901 26.1838 0.279213C28.0362 0.377549 29.8864 0.489605 31.7389 0.619959C32.2008 0.651975 32.6651 0.686265 33.1271 0.720569L34.5153 0.828075L35.2105 0.885247L35.5582 0.912689L35.7571 0.930974L35.9995 0.956127C36.6399 1.03617 37.2665 1.22827 37.8246 1.53014C38.3826 1.82973 38.8789 2.22535 39.2791 2.69417C39.6816 3.16069 39.9903 3.69811 40.187 4.26527C40.386 4.83242 40.4752 5.42704 40.4523 6.00562L40.4432 6.22287C40.4432 6.26174 40.4386 6.28691 40.4363 6.31664L40.4272 6.40354L40.3883 6.75116L40.3082 7.44635C40.0795 9.28731 39.8417 11.1397 39.5329 12.9921Z" fill="#014CC4"/>
<path d="M31.2015 26.4642C30.9476 26.5991 30.6915 26.7272 30.4399 26.8667C30.186 26.9993 29.9391 27.1411 29.6898 27.2806C29.1958 27.5619 28.7109 27.8546 28.2375 28.1634C27.7641 28.4675 27.3067 28.7923 26.8608 29.1239C26.6366 29.2885 26.4217 29.4646 26.2067 29.6361C25.994 29.8145 25.7836 29.9883 25.58 30.1736C25.1707 30.5372 24.7773 30.9145 24.4114 31.3101C24.0478 31.7058 23.707 32.106 23.4051 32.5314L23.2908 32.6891C23.2519 32.7417 23.2199 32.7966 23.1833 32.8515C23.1124 32.9613 23.0392 33.0665 22.9706 33.1763L22.7716 33.5079C22.7373 33.5628 22.7076 33.6176 22.6778 33.6748L22.5864 33.844L22.4949 34.0133C22.4652 34.0704 22.44 34.1299 22.4126 34.1871C22.3577 34.3037 22.2982 34.4158 22.2479 34.5324L22.097 34.8846C22.0466 35.0012 22.0055 35.1224 21.9597 35.2413C21.7859 35.7193 21.6304 36.2041 21.5184 36.7073C21.404 37.2081 21.3011 37.7112 21.2348 38.2303L21.2073 38.4224L21.1867 38.6168L21.1433 39.0079C21.1204 39.2777 21.0907 39.5476 21.0724 39.8197C21.0564 40.0896 21.0312 40.3594 21.0221 40.6293L21.0015 41.0341C20.9946 41.169 20.9923 41.3039 20.9878 41.4388C20.9558 42.516 20.9718 43.5954 21.0289 44.6908C21.0541 45.2374 21.0884 45.7908 21.125 46.3465L21.2439 48.0343C21.2828 48.6014 21.3262 49.1731 21.3628 49.7494L21.4749 51.4143L21.5092 51.8168L21.5275 52.0043L21.5366 52.0935L21.5458 52.1758C21.5732 52.3977 21.6075 52.5784 21.6464 52.7179C21.6853 52.8574 21.7265 52.9534 21.7699 53.0197C21.7814 53.0357 21.7905 53.054 21.8019 53.0677C21.8157 53.0814 21.8225 53.0975 21.8362 53.1112C21.8431 53.1181 21.8477 53.1249 21.8545 53.1318C21.8591 53.1386 21.8637 53.1455 21.8728 53.1546C21.8888 53.1706 21.9049 53.1912 21.9186 53.2072C22.0489 53.3444 22.2182 53.4565 22.3988 53.5274C22.5795 53.5983 22.7693 53.628 22.9386 53.612L24.5943 53.5594L26.3027 53.5137C28.5806 53.4519 30.8584 53.4062 33.1363 53.3696L34.8447 53.3468L35.7 53.3353L35.8029 53.333C35.812 53.3307 35.8212 53.3284 35.8303 53.3284C35.8486 53.3261 35.8669 53.3239 35.8875 53.3239C35.9081 53.3284 35.9241 53.317 35.9424 53.3147C35.9607 53.3102 35.979 53.3079 35.9973 53.3079C36.1368 53.2758 36.2672 53.2118 36.3838 53.1226C36.4982 53.0334 36.6033 52.9191 36.6605 52.7887C36.7223 52.6607 36.7612 52.5258 36.7657 52.3748C36.7657 52.3657 36.768 52.3565 36.7703 52.3473V52.2444V52.0318V51.6041L36.768 50.7488L36.7795 47.3322L36.8092 43.9155C36.8115 43.7623 36.8092 43.6754 36.8229 43.3873C36.8298 43.2661 36.8366 43.1426 36.8458 43.0214C36.8549 42.9002 36.8778 42.779 36.8961 42.6577C36.9144 42.5365 36.935 42.4153 36.9578 42.2964C36.9876 42.1775 37.0173 42.0586 37.0493 41.9397C37.1065 41.6996 37.1934 41.4709 37.2826 41.2422C37.3055 41.185 37.326 41.1278 37.3489 41.0707L37.4267 40.9037C37.4793 40.7939 37.5342 40.6842 37.589 40.5744C37.6165 40.5195 37.6462 40.4669 37.6782 40.4143L37.772 40.2565C37.836 40.1536 37.9001 40.0484 37.9687 39.9478C38.0396 39.8494 38.1128 39.7511 38.1882 39.655C38.2637 39.559 38.3346 39.4607 38.4192 39.3738C38.5839 39.1954 38.744 39.0124 38.9292 38.8546C39.645 38.2006 40.5072 37.7043 41.4358 37.4231C41.669 37.3613 41.9046 37.2972 42.1425 37.2561C42.2614 37.2378 42.3803 37.2195 42.5015 37.2035L42.6799 37.1806C42.7394 37.1738 42.7988 37.1738 42.8606 37.1692C42.9795 37.1623 43.1007 37.1578 43.2196 37.1555L43.3088 37.1532H43.3546H43.3843L43.4918 37.1555L43.9194 37.1646C45.0584 37.1875 46.1973 37.2218 47.3362 37.2515C48.4751 37.2836 49.6141 37.3224 50.7553 37.3613L51.6106 37.3933L52.0383 37.4093L52.2509 37.4162L52.3036 37.4185H52.3287H52.3401H52.3836C52.6123 37.4322 52.8387 37.4025 53.0583 37.3178L53.0789 37.311L53.0971 37.2996L53.136 37.279C53.1635 37.2653 53.1909 37.2538 53.2184 37.2424C53.2435 37.2264 53.2687 37.2104 53.2938 37.1944C53.319 37.1784 53.3487 37.1669 53.3716 37.1463C53.4173 37.1074 53.4745 37.0777 53.5157 37.032C53.5385 37.0114 53.5614 36.9908 53.5866 36.9725C53.6094 36.9519 53.6277 36.9268 53.6506 36.9039C53.8198 36.721 53.9593 36.5014 54.0325 36.2522C54.0394 36.2201 54.0485 36.1881 54.0577 36.1561L54.0737 36.1081C54.0806 36.0921 54.0783 36.076 54.0805 36.0578C54.0851 36.0234 54.0897 35.9914 54.0966 35.9571L54.1011 35.932C54.1034 35.9228 54.1057 35.9205 54.1057 35.8977L54.1103 35.7902L54.1537 34.9349L54.2475 33.2266C54.3756 30.9488 54.5219 28.6688 54.6889 26.391C54.7735 25.2521 54.8604 24.111 54.9565 22.9721L54.9748 22.7594L54.9793 22.7068C54.9816 22.6885 54.9816 22.6702 54.9839 22.6588L54.9885 22.5811L54.9999 22.4255L55.0022 22.3867L54.9999 22.3478L54.9976 22.27C54.9953 22.2174 54.9931 22.1648 54.9931 22.1122L54.9725 21.9567C54.9633 21.9041 54.9633 21.8492 54.9496 21.7989L54.913 21.6434L54.8947 21.5634C54.8879 21.5382 54.8764 21.5131 54.8696 21.4879L54.817 21.3347C54.8032 21.2821 54.7735 21.2341 54.7529 21.1838L54.6866 21.0328L54.6043 20.8887C54.5745 20.8407 54.5517 20.7881 54.5174 20.7447L54.419 20.6075C54.403 20.5846 54.387 20.5594 54.3687 20.5388L54.3138 20.4748C54.0211 20.1272 53.6437 19.8345 53.2092 19.6309C53.1543 19.6058 53.0971 19.5875 53.0423 19.5646C52.9851 19.544 52.9302 19.5166 52.8707 19.5006L52.6946 19.4526C52.6352 19.4366 52.5757 19.416 52.514 19.4091L52.331 19.3771L52.2372 19.3611L52.1297 19.3497L51.7021 19.3039C50.5632 19.1736 49.4219 19.0478 48.283 18.8877C49.4219 18.7185 50.5609 18.5813 51.6975 18.4418L52.1252 18.3914L52.2327 18.38L52.3516 18.3732L52.594 18.3594C52.6763 18.3526 52.7564 18.3594 52.8387 18.3617L53.0857 18.3754C53.168 18.38 53.2481 18.3983 53.3304 18.4097C53.4128 18.4235 53.4951 18.4349 53.5751 18.4509C54.2269 18.5904 54.8535 18.8877 55.3979 19.3131L55.5008 19.3931C55.5351 19.4205 55.5648 19.4503 55.5968 19.48L55.7866 19.6584C55.853 19.7156 55.9056 19.7842 55.965 19.8482L56.1388 20.0449L56.2944 20.2576C56.3447 20.3307 56.4018 20.3993 56.443 20.4771L56.5779 20.7081C56.6008 20.7469 56.6237 20.7858 56.6443 20.8247L56.7014 20.9459L56.8135 21.1906C56.8524 21.2729 56.8753 21.3599 56.9073 21.4445C56.937 21.5291 56.9667 21.616 56.9942 21.7029L57.0559 21.9682L57.0857 22.1008L57.0994 22.1671L57.1085 22.2334L57.1428 22.5056L57.1588 22.6428L57.1703 22.7549L57.1909 22.9675C57.2961 24.1064 57.3967 25.2453 57.4905 26.3842C57.678 28.6619 57.8472 30.9397 57.9959 33.2174L58.1057 34.9257L58.1583 35.7788L58.1651 35.8862C58.1674 35.9 58.1651 35.9343 58.1674 35.9594V36.0418C58.1674 36.1515 58.1674 36.259 58.1651 36.3688C58.1628 36.4237 58.1651 36.4786 58.1583 36.5334L58.1422 36.6981C58.1308 36.8079 58.1194 36.9176 58.1034 37.0251C57.8404 38.7746 56.7403 40.3915 55.16 41.2811C54.3733 41.727 53.4722 41.9991 52.5643 42.0586L52.3928 42.07L52.3218 42.0746L52.2692 42.0769L52.0566 42.086L51.6289 42.1066L50.7759 42.1455C49.6369 42.1935 48.498 42.2438 47.3591 42.2873C46.2202 42.3284 45.0812 42.3719 43.9423 42.4062L43.5146 42.4199L43.4072 42.4222H43.382L43.3729 42.4245L43.3568 42.4291C43.334 42.4336 43.3111 42.4359 43.2905 42.4382C43.2791 42.4405 43.2677 42.4382 43.2562 42.4405C43.2448 42.4451 43.2356 42.4474 43.2242 42.4519C43.2036 42.4588 43.183 42.4634 43.1602 42.4657C43.1556 42.4657 43.1487 42.4679 43.1442 42.4679L43.1304 42.4748C43.1213 42.4794 43.1099 42.4839 43.1007 42.4862C43.0801 42.4931 43.0595 42.5 43.0389 42.5045C42.8834 42.5709 42.7439 42.6715 42.6273 42.795C42.593 42.8201 42.5747 42.8613 42.5472 42.891C42.5312 42.9047 42.5244 42.9253 42.5129 42.9436C42.5015 42.9619 42.4901 42.9779 42.4786 42.9939C42.4695 43.0122 42.4626 43.0328 42.4535 43.0488C42.4489 43.058 42.4443 43.0671 42.4375 43.074C42.4329 43.0831 42.426 43.09 42.4237 43.1014C42.4169 43.122 42.41 43.1403 42.4032 43.1586C42.3986 43.1677 42.394 43.1769 42.3894 43.186C42.3872 43.1952 42.3849 43.2066 42.3826 43.2158C42.3734 43.2546 42.3551 43.2889 42.3551 43.3301C42.3529 43.3484 42.3483 43.369 42.3414 43.3873C42.3414 43.4079 42.3414 43.4284 42.3391 43.4467C42.3391 43.4673 42.33 43.4856 42.3323 43.5062C42.3346 43.5268 42.3368 43.5474 42.3346 43.568C42.33 43.5634 42.3346 43.7623 42.3391 43.8927L42.4009 47.3093L42.4443 50.7259L42.4512 51.5812L42.4535 52.0089L42.4558 52.2216V52.3336L42.4512 52.5189C42.4283 53.5068 42.1813 54.5039 41.7262 55.3889C41.2757 56.2785 40.6147 57.0492 39.8257 57.6484C39.0367 58.2476 38.1082 58.6775 37.1294 58.8696C37.0081 58.8902 36.8846 58.9108 36.7612 58.9291C36.6377 58.9451 36.5164 58.9679 36.393 58.9725C36.2695 58.9817 36.146 58.9862 36.0225 58.9931L35.8372 59H35.7274L34.8721 58.9977L33.1637 58.9908C30.8859 58.9748 28.608 58.9519 26.3279 58.9108L24.6195 58.881L22.8585 58.8399C22.3737 58.8239 21.8957 58.7553 21.4337 58.6341C20.9717 58.5129 20.5281 58.3368 20.1096 58.1172C19.2725 57.6781 18.5338 57.0561 17.9621 56.2945C17.8912 56.1985 17.8249 56.1002 17.7562 56.0018C17.6899 55.9035 17.6236 55.7914 17.5618 55.6862C17.4978 55.5788 17.4429 55.4667 17.3858 55.3569C17.3309 55.2449 17.2828 55.1328 17.2325 55.0208C17.0427 54.5679 16.9238 54.1128 16.8506 53.6943C16.7774 53.2735 16.7454 52.8894 16.7294 52.5418L16.7248 52.4114L16.7202 52.2879C16.7179 52.2033 16.7157 52.1255 16.7157 52.0478L16.7134 51.5973L16.7408 49.8455L16.7774 48.144C16.8003 47.0029 16.8323 45.8389 16.9009 44.6542C16.9352 44.0642 16.9855 43.4673 17.0427 42.8704C17.077 42.5709 17.1044 42.2735 17.1456 41.974L17.2051 41.5257C17.2257 41.3771 17.2508 41.2285 17.2714 41.0798C17.3583 40.4852 17.4727 39.8929 17.5939 39.3052C17.6533 39.0124 17.7242 38.7197 17.7883 38.4293C17.8226 38.2806 17.8637 38.1297 17.9003 37.981L17.9575 37.7569L18.0215 37.5328C18.1885 36.9359 18.3897 36.3391 18.6253 35.7559C18.8563 35.1727 19.133 34.5987 19.4418 34.0476C19.7482 33.4942 20.1004 32.9636 20.4869 32.465L20.6333 32.2775C20.6813 32.2158 20.7293 32.154 20.7819 32.0946L21.0884 31.7378C21.1936 31.6212 21.3011 31.5091 21.4086 31.3948C21.4635 31.3376 21.5161 31.2804 21.5709 31.2255L21.7402 31.0632C21.8545 30.958 21.962 30.8459 22.0787 30.7453L22.4286 30.4411C22.5452 30.3405 22.6687 30.249 22.7876 30.153C22.9088 30.0569 23.0278 29.9632 23.1513 29.8763C23.6361 29.5149 24.1438 29.1902 24.6584 28.8883C25.173 28.5864 25.699 28.312 26.2341 28.0673C26.7693 27.8203 27.3113 27.5939 27.8602 27.3973C28.9579 26.9993 30.0717 26.6883 31.2015 26.4642Z" fill="#014CC4"/>
<path d="M16.4389 33.6496C16.3726 33.4644 16.3086 33.2768 16.2491 33.087C16.1896 32.8972 16.1393 32.7051 16.0844 32.513C16.0593 32.417 16.0341 32.3209 16.0113 32.2226C15.9884 32.1265 15.9655 32.0282 15.9449 31.9299L15.8832 31.6348L15.8283 31.3375C15.6888 30.5417 15.6293 29.7253 15.6499 28.8883C15.6682 28.4721 15.6956 28.049 15.7643 27.6282C15.7917 27.4155 15.8352 27.2051 15.8786 26.9924C15.8992 26.8849 15.9289 26.782 15.9541 26.6768C15.9815 26.5716 16.0067 26.4642 16.0387 26.359C16.2857 25.5174 16.6562 24.6872 17.1547 23.9188L17.3514 23.6376C17.4178 23.5438 17.4818 23.4477 17.555 23.3608C17.6991 23.1824 17.8386 22.9949 17.9987 22.828L18.2342 22.5719C18.3142 22.4895 18.3989 22.4095 18.4812 22.3295C18.5658 22.2494 18.6481 22.1671 18.7328 22.0893L18.9958 21.8652C19.7047 21.2729 20.4892 20.7812 21.3034 20.3878C21.404 20.3398 21.5069 20.285 21.6098 20.2392L21.9186 20.1066L22.2296 19.9762C22.3325 19.9351 22.4354 19.9008 22.536 19.8619C22.7419 19.7887 22.9454 19.7087 23.1535 19.6423L23.4646 19.5394C23.5675 19.5051 23.6772 19.4777 23.7824 19.4456L24.1026 19.3565L24.4205 19.2764C24.6332 19.2215 24.8436 19.1758 25.054 19.1301C25.4748 19.0386 25.8911 18.9677 26.3027 18.8991C27.9448 18.6384 29.5022 18.5149 30.9087 18.3068C31.0825 18.2793 31.2563 18.2519 31.4256 18.2244L31.915 18.1284C31.9973 18.1124 32.0774 18.101 32.1597 18.0804L32.4021 18.0232C32.5622 17.982 32.7246 17.95 32.8847 17.9043C33.2049 17.8105 33.525 17.7259 33.8406 17.6184L34.0785 17.5407L34.1974 17.5018L34.314 17.4583L34.7829 17.2822C37.2803 16.308 39.629 14.7918 41.8405 12.9829L41.8748 12.9554C43.0824 11.9675 44.8617 12.1481 45.8496 13.3556C46.2041 13.7901 46.4077 14.2956 46.4671 14.8124L46.4877 14.9953L46.5037 15.1554L46.5334 15.4642C46.5517 15.6677 46.57 15.869 46.5838 16.0702C46.6158 16.4704 46.6364 16.8683 46.6501 17.2663C46.6798 18.0621 46.6913 18.8556 46.6707 19.6515C46.6524 20.4473 46.6135 21.2432 46.538 22.0436C46.5037 22.4415 46.4603 22.8417 46.4122 23.2419C46.3619 23.6421 46.3002 24.0423 46.2361 24.4425C45.9708 26.0434 45.5683 27.6488 44.9646 29.2267C44.6513 30.0134 44.3013 30.7978 43.8645 31.5548C43.4369 32.3141 42.9292 33.0482 42.3414 33.7342C42.0487 34.0773 41.7285 34.4043 41.3969 34.7153C41.2253 34.8662 41.0584 35.0218 40.8754 35.1635C40.7862 35.2344 40.6993 35.3099 40.6056 35.3785L40.3266 35.582L40.2557 35.6323L40.1779 35.6849L40.0247 35.7879C39.9218 35.8565 39.8166 35.9296 39.7274 35.9731L39.1648 36.2818C38.9772 36.3893 38.792 36.4716 38.609 36.5608C38.4238 36.6477 38.2408 36.7392 38.0556 36.8215C36.5645 37.4779 35.0207 37.9559 33.4587 38.2532C31.8944 38.5436 30.3118 38.651 28.7544 38.5687C27.1992 38.4818 25.6669 38.212 24.2307 37.7134C25.747 37.5945 27.2061 37.3658 28.6126 37.0091C30.0191 36.6569 31.3707 36.1904 32.6537 35.6163C33.9344 35.0355 35.1465 34.354 36.2671 33.5833C36.4067 33.4872 36.5416 33.3843 36.6788 33.286C36.8137 33.1854 36.9555 33.0893 37.0767 32.9864L37.4518 32.6891C37.5227 32.6388 37.5593 32.5931 37.605 32.5496L37.6736 32.4833L37.7079 32.4513L37.7445 32.4124C37.9458 32.2089 38.1333 31.9916 38.314 31.7675C38.4901 31.5365 38.657 31.2987 38.8148 31.0494C39.4392 30.0477 39.9035 28.886 40.2351 27.6442C40.5713 26.4001 40.7817 25.0806 40.912 23.7336C40.944 23.3951 40.9715 23.059 40.9921 22.7159C41.0149 22.3752 41.0332 22.0344 41.0447 21.6914C41.0584 21.3484 41.063 21.0053 41.0675 20.66C41.0721 20.3147 41.0721 19.9694 41.0675 19.624C41.0538 18.9334 41.0355 18.2382 40.9921 17.5475C40.9715 17.2022 40.944 16.8592 40.9189 16.5184C40.9052 16.3492 40.8891 16.18 40.8731 16.013L40.848 15.766L40.8228 15.5534L45.4494 17.3829C44.1595 18.4394 42.7896 19.4297 41.3054 20.2872C40.9395 20.5091 40.5553 20.7034 40.1756 20.9093C39.9835 21.0076 39.7891 21.1014 39.5947 21.1974L39.3043 21.3392L39.007 21.4741L38.4101 21.7348L37.8017 21.975C37.6988 22.0139 37.6005 22.0573 37.4953 22.0916L37.1842 22.2014C36.9761 22.2723 36.7726 22.35 36.5622 22.4118L35.9287 22.5993L35.7709 22.645L35.6108 22.6862L35.2906 22.7662C35.0756 22.8188 34.8652 22.8783 34.6457 22.9195L33.9962 23.0475C33.7789 23.0887 33.5593 23.1161 33.3398 23.1527L33.0127 23.2007C32.903 23.219 32.7932 23.2259 32.6834 23.2396L32.0225 23.3036C31.8075 23.3197 31.5971 23.3311 31.3844 23.3448C29.708 23.4249 28.1666 23.3677 26.7281 23.3974C26.5497 23.402 26.369 23.4066 26.1952 23.4134C26.0214 23.4226 25.843 23.4272 25.6715 23.4409C25.5 23.4523 25.3262 23.4614 25.1592 23.4775L24.9054 23.5003L24.6584 23.5301C24.4937 23.5484 24.3245 23.5735 24.1575 23.601C23.9883 23.6238 23.8236 23.6604 23.6544 23.6879C23.572 23.7039 23.4851 23.7176 23.4051 23.7336L23.1672 23.7885L22.9271 23.8411C22.8471 23.8594 22.7716 23.8845 22.6938 23.9051C21.4406 24.2459 20.3039 24.813 19.3617 25.6912L19.1902 25.8604C19.133 25.9176 19.0712 25.9725 19.0209 26.0342C18.9134 26.1554 18.8014 26.2766 18.7008 26.407L18.5452 26.6014L18.4012 26.8049L18.328 26.9078C18.3051 26.9421 18.2822 26.9787 18.2594 27.0153L18.1221 27.2303C17.7677 27.8157 17.4772 28.4652 17.2394 29.1558C16.7728 30.544 16.5441 32.0739 16.4389 33.6496Z" fill="#68C721"/>
<path d="M67.1704 48.2558C66.7832 48.0798 66.4839 47.8334 66.2595 47.5166C66.0395 47.1998 65.9207 46.8477 65.9075 46.4605H66.7215C66.7568 46.8345 66.924 47.1645 67.2188 47.4462C67.5136 47.7278 67.9405 47.8686 68.5081 47.8686C69.0274 47.8686 69.4411 47.7366 69.7491 47.4682C70.0527 47.1998 70.2067 46.8609 70.2067 46.4473C70.2067 46.1173 70.1231 45.8489 69.9515 45.6465C69.7843 45.444 69.5731 45.2944 69.3222 45.1932C69.0714 45.092 68.7282 44.9864 68.2881 44.8676C67.7733 44.7268 67.3684 44.5904 67.0648 44.4584C66.7656 44.3264 66.5059 44.1196 66.2947 43.8423C66.0835 43.5651 65.9735 43.1867 65.9735 42.707C65.9735 42.311 66.0747 41.9546 66.2815 41.6422C66.4883 41.3298 66.7787 41.0877 67.1528 40.9117C67.5268 40.7357 67.9581 40.6477 68.4421 40.6477C69.155 40.6477 69.7271 40.8237 70.1671 41.1713C70.6028 41.5189 70.8536 41.9722 70.9196 42.5222H70.0835C70.0307 42.2054 69.8591 41.9238 69.5643 41.6774C69.2694 41.4309 68.8734 41.3078 68.3761 41.3078C67.9141 41.3078 67.5268 41.4309 67.2188 41.6774C66.9108 41.9238 66.7568 42.2582 66.7568 42.6851C66.7568 43.0063 66.8404 43.2703 67.012 43.4683C67.1792 43.6663 67.3904 43.8159 67.6456 43.9215C67.9009 44.0227 68.2441 44.1327 68.6754 44.2515C69.1726 44.3923 69.5775 44.5288 69.8855 44.6652C70.1935 44.8016 70.4532 45.0084 70.6688 45.2856C70.88 45.5628 70.99 45.9413 70.99 46.4077C70.99 46.7685 70.8932 47.1073 70.704 47.433C70.5148 47.7542 70.2287 48.0182 69.8547 48.2162C69.4807 48.4142 69.0318 48.5155 68.5126 48.5155C68.0021 48.5199 67.5577 48.4318 67.1704 48.2558Z" fill="#787878"/>
<path d="M73.2475 40.74V48.4405H72.4774V40.74H73.2475Z" fill="#787878"/>
<path d="M82.5237 40.8413V48.4451H81.7536V42.3726L79.0429 48.4451H78.4797L75.769 42.399V48.4451H74.9989V40.8413H75.813L78.7525 47.4286L81.6921 40.8413H82.5237Z" fill="#787878"/>
<path d="M88.548 44.5551C88.1124 44.9599 87.4655 45.1623 86.5986 45.1623H85.0452V48.4449H84.2751V40.7444H86.5986C87.4567 40.7444 88.108 40.9468 88.5436 41.3516C88.9793 41.7565 89.1993 42.2933 89.1993 42.9622C89.1993 43.6178 88.9836 44.1502 88.548 44.5551ZM88.4072 42.9578C88.4072 42.4429 88.262 42.0557 87.9759 41.7917C87.6899 41.5276 87.2323 41.3956 86.5986 41.3956H85.0452V44.5023H86.5986C87.8043 44.4979 88.4072 43.983 88.4072 42.9578Z" fill="#787878"/>
<path d="M91.2587 47.8157H94.0222V48.4449H90.4843V40.7444H91.2543V47.8157H91.2587Z" fill="#787878"/>
<path d="M95.8968 40.74V48.4405H95.1267V40.74H95.8968Z" fill="#787878"/>
<path d="M101.815 40.74V41.3781H98.4226V44.2514H101.287V44.8895H98.4226V48.4361H97.6525V40.7356H101.815V40.74Z" fill="#787878"/>
<path d="M103.853 40.74V48.4405H103.083V40.74H103.853Z" fill="#787878"/>
<path d="M106.374 41.3695V44.2429H109.292V44.881H106.374V47.7984H109.626V48.4364H105.604V40.7227H109.626V41.3607H106.374V41.3695Z" fill="#787878"/>
<path d="M115.62 41.2063C116.231 41.5143 116.694 41.9587 117.019 42.5395C117.34 43.1204 117.503 43.8113 117.503 44.6121C117.503 45.4042 117.34 46.0906 117.019 46.667C116.698 47.2435 116.231 47.6835 115.62 47.9871C115.008 48.2907 114.278 48.4448 113.428 48.4448H111.149V40.7442H113.428C114.278 40.7398 115.008 40.8939 115.62 41.2063ZM115.875 46.9619C116.438 46.3986 116.72 45.6154 116.72 44.6077C116.72 43.5956 116.438 42.8036 115.875 42.2315C115.312 41.6639 114.498 41.3779 113.424 41.3779H111.915V47.8023H113.424C114.498 47.8023 115.316 47.5207 115.875 46.9619Z" fill="#787878"/>
<path d="M127.66 40.74V48.4405H126.889V44.8367H122.713V48.4405H121.943V40.74H122.713V44.1986H126.889V40.74H127.66Z" fill="#787878"/>
<path d="M130.194 41.3695V44.2429H133.112V44.881H130.194V47.7984H133.446V48.4364H129.424V40.7227H133.446V41.3607H130.194V41.3695Z" fill="#787878"/>
<path d="M139.426 46.6145H135.924L135.25 48.4451H134.436L137.244 40.8413H138.115L140.914 48.4451H140.1L139.426 46.6145ZM139.193 45.9765L137.671 41.8138L136.152 45.9765H139.193Z" fill="#787878"/>
<path d="M142.916 47.8157H145.68V48.4449H142.142V40.7444H142.912V47.8157H142.916Z" fill="#787878"/>
<path d="M151.29 40.74V41.3781H149.152V48.4405H148.381V41.3781H146.234V40.74H151.29Z" fill="#787878"/>
<path d="M158.23 40.74V48.4405H157.46V44.8367H153.284V48.4405H152.513V40.74H153.284V44.1986H157.46V40.74H158.23Z" fill="#787878"/>
<path d="M160.139 42.553C160.47 41.9546 160.923 41.4882 161.495 41.1537C162.067 40.8193 162.705 40.6521 163.413 40.6521C164.272 40.6521 165.011 40.8545 165.622 41.2637C166.234 41.673 166.683 42.245 166.96 42.9886H166.058C165.838 42.4694 165.504 42.0602 165.05 41.7653C164.597 41.4705 164.052 41.3253 163.413 41.3253C162.846 41.3253 162.34 41.4573 161.886 41.7213C161.433 41.9854 161.081 42.3638 160.822 42.8611C160.566 43.3583 160.434 43.9303 160.434 44.586C160.434 45.2416 160.562 45.8137 160.822 46.3065C161.077 46.7993 161.433 47.1777 161.886 47.4417C162.34 47.7058 162.846 47.8378 163.413 47.8378C164.052 47.8378 164.597 47.6926 165.05 47.4022C165.504 47.1117 165.838 46.7113 166.058 46.1965H166.96C166.683 46.9313 166.234 47.499 165.618 47.9038C165.002 48.3086 164.267 48.511 163.413 48.511C162.709 48.511 162.071 48.3438 161.495 48.0094C160.923 47.675 160.47 47.2085 160.139 46.6145C159.809 46.0204 159.642 45.3428 159.642 44.586C159.642 43.8291 159.805 43.1515 160.139 42.553Z" fill="#787878"/>
<path d="M172.949 46.6145H169.446L168.773 48.4451H167.959L170.767 40.8413H171.638L174.437 48.4451H173.623L172.949 46.6145ZM172.72 45.9765L171.202 41.8138L169.684 45.9765H172.72Z" fill="#787878"/>
<path d="M179.77 48.4405L177.865 45.2239H176.443V48.4405H175.673V40.74H177.988C178.846 40.74 179.497 40.9468 179.942 41.356C180.386 41.7653 180.606 42.3065 180.606 42.9753C180.606 43.5342 180.448 44.0095 180.127 44.4011C179.805 44.7927 179.334 45.0479 178.71 45.1667L180.694 48.4405H179.77ZM176.443 44.5991H177.997C178.6 44.5991 179.053 44.4539 179.356 44.159C179.66 43.8642 179.814 43.4726 179.814 42.9797C179.814 42.4737 179.669 42.0821 179.374 41.8049C179.079 41.5277 178.617 41.3912 177.988 41.3912H176.443V44.5991Z" fill="#787878"/>
<path d="M182.908 41.3695V44.2429H185.825V44.881H182.908V47.7984H186.159V48.4364H182.137V40.7227H186.159V41.3607H182.908V41.3695Z" fill="#787878"/>
<path d="M72.1035 33.2684L66.4664 33.2992C66.3652 33.2992 66.3124 33.2464 66.3124 33.1452L66.3741 11.5353C66.3741 11.4517 66.4136 11.4121 66.4973 11.4121L72.3807 11.3813C73.5468 11.3505 74.6029 11.6189 75.5446 12.1821C76.4952 12.7454 77.2564 13.5066 77.8241 14.4615C78.3918 15.4208 78.6778 16.4768 78.6778 17.6341V26.668C78.6778 27.878 78.3874 28.9825 77.8021 29.9858C77.208 30.9803 76.4203 31.7723 75.4346 32.3576C74.4533 32.9428 73.34 33.2464 72.1035 33.2684ZM72.3807 15.1435L70.1849 15.1744L70.1541 29.427H72.1035C72.8824 29.427 73.538 29.1542 74.0705 28.6129C74.603 28.0717 74.867 27.4204 74.867 26.6636V17.6033C74.867 16.9389 74.6206 16.358 74.1277 15.8608C73.6393 15.3591 73.054 15.1215 72.3807 15.1435Z" fill="#014CC4"/>
<path d="M90.7483 33.6026C89.6306 33.6026 88.6009 33.3166 87.6592 32.7402C86.7263 32.1681 85.9782 31.4024 85.4105 30.4432C84.8429 29.4839 84.5568 28.4323 84.5568 27.2882L84.5876 17.3215C84.5876 16.1554 84.8693 15.1037 85.4325 14.1708C85.987 13.2292 86.735 12.4723 87.6768 11.9047C88.6185 11.337 89.6438 11.051 90.7483 11.051C91.8968 11.051 92.9221 11.3327 93.8374 11.8959C94.7571 12.4591 95.5008 13.216 96.0553 14.162C96.6141 15.1081 96.8914 16.1598 96.8914 17.3171L96.9222 27.2838C96.9222 28.4323 96.6449 29.4795 96.0905 30.4344C95.5272 31.398 94.7791 32.1637 93.8462 32.7402C92.9177 33.3166 91.8836 33.6026 90.7483 33.6026ZM90.7483 29.8095C91.382 29.8095 91.9364 29.5499 92.4073 29.0351C92.8781 28.5203 93.1157 27.935 93.1157 27.2926L93.0849 17.3259C93.0849 16.6306 92.8649 16.041 92.4249 15.5613C91.9848 15.0817 91.426 14.8397 90.7527 14.8397C90.1058 14.8397 89.5558 15.0773 89.0937 15.5481C88.6317 16.019 88.4028 16.613 88.4028 17.3303V27.297C88.4028 27.9834 88.6317 28.573 89.0937 29.0703C89.547 29.5631 90.1014 29.8095 90.7483 29.8095Z" fill="#014CC4"/>
<path d="M108.852 33.6026C107.717 33.6026 106.674 33.3166 105.732 32.7402C104.799 32.1681 104.06 31.3981 103.514 30.43C102.964 29.4619 102.691 28.3838 102.691 27.1957L102.722 17.3831C102.722 16.217 102.986 15.1609 103.519 14.2192C104.051 13.2688 104.786 12.5031 105.723 11.9223C106.66 11.3458 107.703 11.0554 108.847 11.0554C110.014 11.0554 111.052 11.337 111.967 11.9002C112.887 12.4635 113.622 13.2248 114.172 14.1796C114.718 15.1389 114.995 16.2038 114.995 17.3831V18.8264C114.995 18.91 114.955 18.9496 114.872 18.9496H111.338C111.255 18.9496 111.215 18.91 111.215 18.8264V17.3831C111.215 16.6878 110.991 16.0893 110.537 15.5877C110.088 15.0861 109.525 14.8353 108.847 14.8353C108.099 14.8353 107.527 15.0905 107.127 15.6053C106.726 16.1158 106.528 16.7098 106.528 17.3875V27.2001C106.528 27.9702 106.753 28.595 107.206 29.0835C107.655 29.5719 108.205 29.8139 108.847 29.8139C109.525 29.8139 110.088 29.5455 110.537 29.0087C110.986 28.4718 111.215 27.869 111.215 27.2045V25.7437C111.215 25.6601 111.255 25.6204 111.338 25.6204H114.903C114.986 25.6204 115.026 25.6601 115.026 25.7437V27.2045C115.026 28.3838 114.749 29.4575 114.194 30.43C113.631 31.3937 112.887 32.1637 111.967 32.7402C111.048 33.3166 110.009 33.6026 108.852 33.6026Z" fill="#014CC4"/>
<path d="M127.787 33.299H124.24C124.148 33.299 124.104 33.2462 124.104 33.145V15.2049H120.016C119.915 15.2049 119.862 15.1521 119.862 15.0509L119.893 11.5351C119.893 11.4515 119.932 11.4119 120.016 11.4119H131.968C132.082 11.4119 132.135 11.4515 132.135 11.5351V15.0509C132.135 15.1521 132.095 15.2049 132.012 15.2049H127.88L127.91 33.145C127.91 33.2462 127.871 33.299 127.787 33.299Z" fill="#014CC4"/>
<path d="M142.626 33.6026C141.508 33.6026 140.478 33.3166 139.537 32.7402C138.604 32.1681 137.856 31.4024 137.288 30.4432C136.72 29.4839 136.434 28.4323 136.434 27.2882L136.465 17.3215C136.465 16.1554 136.747 15.1037 137.31 14.1708C137.864 13.2292 138.612 12.4723 139.554 11.9047C140.496 11.337 141.521 11.051 142.626 11.051C143.774 11.051 144.799 11.3327 145.715 11.8959C146.634 12.4591 147.378 13.216 147.933 14.162C148.491 15.1081 148.769 16.1598 148.769 17.3171L148.8 27.2838C148.8 28.4323 148.522 29.4795 147.968 30.4344C147.405 31.398 146.656 32.1637 145.724 32.7402C144.795 33.3166 143.761 33.6026 142.626 33.6026ZM142.626 29.8095C143.259 29.8095 143.814 29.5499 144.285 29.0351C144.755 28.5203 144.993 27.935 144.993 27.2926L144.962 17.3259C144.962 16.6306 144.742 16.041 144.302 15.5613C143.862 15.0817 143.303 14.8397 142.63 14.8397C141.983 14.8397 141.433 15.0773 140.971 15.5481C140.509 16.019 140.28 16.613 140.28 17.3303V27.297C140.28 27.9834 140.509 28.573 140.971 29.0703C141.424 29.5631 141.979 29.8095 142.626 29.8095Z" fill="#014CC4"/>
<path d="M158.626 33.299H155.061C154.978 33.299 154.938 33.2462 154.938 33.145L155 11.5351C155 11.4515 155.039 11.4119 155.123 11.4119H158.965C159.048 11.4119 159.119 11.4515 159.18 11.5351L162.054 15.6802L164.91 11.5351C164.971 11.4515 165.046 11.4119 165.139 11.4119H168.993C169.086 11.4119 169.13 11.4515 169.13 11.5351L169.191 33.145C169.191 33.2462 169.152 33.299 169.068 33.299H165.504C165.42 33.299 165.381 33.2462 165.381 33.145L165.35 17.0927L162.049 21.8846L158.775 17.0927L158.745 33.145C158.749 33.2462 158.709 33.299 158.626 33.299Z" fill="#014CC4"/>
<path d="M185.887 33.299H175.717C175.634 33.299 175.594 33.2462 175.594 33.145L175.625 11.5351C175.625 11.4515 175.665 11.4119 175.748 11.4119H185.856C185.94 11.4119 185.979 11.4647 185.979 11.5659V15.0818C185.979 15.1654 185.94 15.2049 185.856 15.2049H179.405V20.1201H185.856C185.94 20.1201 185.979 20.1597 185.979 20.2433L186.01 23.8076C186.01 23.8912 185.97 23.9308 185.887 23.9308H179.405V29.4312H185.887C185.97 29.4312 186.01 29.484 186.01 29.5852V33.1802C186.01 33.255 185.97 33.299 185.887 33.299Z" fill="#014CC4"/>
</svg>
