<svg width="201" height="36" viewBox="0 0 201 36" fill="none" xmlns="http://www.w3.org/2000/svg">
<path d="M61.4623 14.0217V30.1433H57.599V18.0422H49.7217V30.1433H45.8584V8.29929H49.7217V14.021H61.4623V14.0217Z" fill="#7AFF4C"/>
<path d="M81.2299 14.0218V30.1049H65.4761V20.4397H77.2167V17.8109H65.4761V14.0218H81.2299ZM77.2159 26.5094V23.7254H69.4885V26.5094H77.2159Z" fill="#7AFF4C"/>
<path d="M89.1441 18.0037V25.9677H100.885V30.1049H85.1309V13.9057H100.885V18.0037H89.1441Z" fill="#7AFF4C"/>
<path d="M114.613 22.0249L120.426 28.1331V30.1433H116.825L111.049 24.1504H108.686V30.1433H104.822V8.841H108.686V20.0531H111.049L116.975 14.0609H120.426V16.0711L114.613 22.0249Z" fill="#7AFF4C"/>
<path d="M138.018 16.3024L132.204 30.1433H128.191L122.452 16.3024V13.9057H125.94L130.254 24.6537L134.492 13.9057H138.018V16.3024H138.018Z" fill="#7AFF4C"/>
<path d="M144.545 8.87943V12.0108H140.681V8.87943H144.545ZM140.681 14.2922H144.544V30.1433H140.681V14.2922Z" fill="#7AFF4C"/>
<path d="M152.571 20.4781H164.312V30.1433H148.558V26.5094H160.299V23.7254H148.558V14.0602H164.312V17.8101H152.571V20.4781Z" fill="#7AFF4C"/>
<path d="M168.175 14.0218H183.929V23.687H172.188V26.3158H183.929V30.1049H168.175V14.0218ZM172.188 20.4005H179.916V17.6165H172.188V20.4005Z" fill="#7AFF4C"/>
<path d="M200.096 14.0218V21.9857H196.083V18.0422H191.806V30.1433H187.793V14.0218H200.096Z" fill="#7AFF4C"/>
<path d="M0 0.800964L19.2677 35.199L22.1917 29.9791L13.4021 14.2877L19.2677 14.3194L15.8737 8.26012H10.0257L5.848 0.800964H0Z" fill="#7AFF4C"/>
<path d="M25.1152 24.7607L38.5363 0.800964H32.6883L22.1919 19.5393L25.1152 24.7607Z" fill="#7AFF4C"/>
</svg>